<?xml version="1.0" encoding="utf-8"?>
<!-- Generator: Adobe Illustrator 27.0.0, SVG Export Plug-In . SVG Version: 6.00 Build 0)  -->
<svg version="1.1" id="Layer_1" xmlns="http://www.w3.org/2000/svg" xmlns:xlink="http://www.w3.org/1999/xlink" x="0px" y="0px"
	 viewBox="0 0 612 792" style="enable-background:new 0 0 612 792;" xml:space="preserve">
<style type="text/css">
	.st0{fill:url(#SVGID_1_);}
	.st1{fill:url(#SVGID_00000070089587829386224990000002294236413222578856_);}
	.st2{fill:url(#SVGID_00000147931860939995032370000014746918340291001230_);}
	.st3{fill:url(#SVGID_00000162333750614026633160000013160736122910681242_);}
	.st4{fill:#FFFFFF;}
	.st5{fill:url(#SVGID_00000085940873698790519870000017906675681451868849_);}
	.st6{fill:url(#SVGID_00000081607733886435849510000014784986557036483248_);}
	.st7{fill:url(#SVGID_00000019660881291988707020000018389348322656475325_);}
	.st8{fill:url(#SVGID_00000105385638422637458530000013718771409335763135_);}
	.st9{fill:url(#SVGID_00000116229722336299411420000015132708028860374432_);}
	.st10{fill:#1C544E;}
	.st11{font-family:'BradleyHandITC';}
	.st12{font-size:36px;}
	.st13{letter-spacing:54;}
</style>
<radialGradient id="SVGID_1_" cx="306" cy="396" r="353.8729" gradientUnits="userSpaceOnUse">
	<stop  offset="0" style="stop-color:#67C0A4;stop-opacity:0.1108"/>
	<stop  offset="0.8325" style="stop-color:#77C1B4;stop-opacity:0.9174"/>
	<stop  offset="0.8662" style="stop-color:#78C1B5;stop-opacity:0.95"/>
</radialGradient>
<rect class="st0" width="612" height="792"/>
<radialGradient id="SVGID_00000033353790685109915110000003341760442380500392_" cx="440.3946" cy="2377.5781" r="85.0799" gradientTransform="matrix(0.4469 0 0 0.0593 119.5682 297.1958)" gradientUnits="userSpaceOnUse">
	<stop  offset="0" style="stop-color:#000000;stop-opacity:0.6512"/>
	<stop  offset="0" style="stop-color:#000000;stop-opacity:0.0216"/>
	<stop  offset="0" style="stop-color:#000000;stop-opacity:0.4734"/>
	<stop  offset="0" style="stop-color:#000000;stop-opacity:0.4108"/>
	<stop  offset="0.9017" style="stop-color:#000000;stop-opacity:0.0216"/>
	<stop  offset="0.9956" style="stop-color:#000000;stop-opacity:0.0216"/>
</radialGradient>
<ellipse style="fill:url(#SVGID_00000033353790685109915110000003341760442380500392_);" cx="316.36" cy="438.11" rx="38.02" ry="5.04"/>
<g>
	
		<linearGradient id="SVGID_00000137114088385609911930000012159966109935201464_" gradientUnits="userSpaceOnUse" x1="261.0808" y1="382.7176" x2="425.0853" y2="283.6561">
		<stop  offset="0" style="stop-color:#0D1829"/>
		<stop  offset="0.0119" style="stop-color:#0F1C2F"/>
		<stop  offset="0.0365" style="stop-color:#11213A"/>
		<stop  offset="0.0657" style="stop-color:#122441"/>
		<stop  offset="0.1018" style="stop-color:#122647"/>
		<stop  offset="0.1524" style="stop-color:#12274A"/>
		<stop  offset="0.293" style="stop-color:#12274B"/>
		<stop  offset="0.3671" style="stop-color:#122B4E"/>
		<stop  offset="0.4668" style="stop-color:#133556"/>
		<stop  offset="0.581" style="stop-color:#164564"/>
		<stop  offset="0.7061" style="stop-color:#195C79"/>
		<stop  offset="0.8401" style="stop-color:#187D9A"/>
		<stop  offset="0.9795" style="stop-color:#01ACC8"/>
		<stop  offset="1" style="stop-color:#00B6D2"/>
		<stop  offset="1" style="stop-color:#2484C6;stop-opacity:0"/>
	</linearGradient>
	<polygon style="fill:url(#SVGID_00000137114088385609911930000012159966109935201464_);" points="401.14,250.61 390.41,269.17 
		379.7,287.74 368.97,306.32 358.26,324.89 347.53,343.45 336.82,362.02 326.09,380.6 315.36,399.16 304.65,417.73 293.92,436.29 
		283.21,417.73 272.48,399.16 261.77,380.6 251.04,362.02 261.77,343.45 272.48,324.89 283.21,343.45 293.92,362.02 304.65,343.45 
		315.36,324.89 326.09,306.32 336.82,287.74 347.53,269.17 358.26,250.61 	"/>
	
		<linearGradient id="SVGID_00000101782606509281414930000012706864014942347149_" gradientUnits="userSpaceOnUse" x1="310.8817" y1="318.1363" x2="210.6437" y2="329.4307">
		<stop  offset="0" style="stop-color:#0D1829"/>
		<stop  offset="0.2057" style="stop-color:#12274B"/>
		<stop  offset="0.4089" style="stop-color:#174A69"/>
		<stop  offset="0.6959" style="stop-color:#187D9A"/>
		<stop  offset="0.9" style="stop-color:#08A3C0"/>
		<stop  offset="1" style="stop-color:#00B6D2"/>
	</linearGradient>
	<polygon style="fill:url(#SVGID_00000101782606509281414930000012706864014942347149_);" points="315.36,324.89 304.65,343.45 
		293.92,362.02 283.21,343.45 272.48,324.89 261.77,343.45 251.04,362.02 240.33,380.6 229.61,399.15 218.89,380.6 218.89,380.58 
		214.96,373.78 208.16,362.02 218.89,343.45 229.6,324.89 240.33,306.32 251.04,287.74 261.77,269.17 272.48,250.61 283.21,269.17 
		293.92,287.74 304.65,306.32 	"/>
	<polygon class="st4" points="229.61,399.15 229.6,399.16 229.59,399.15 218.89,380.6 	"/>
	
		<linearGradient id="SVGID_00000125582281107451573260000002197638525507340729_" gradientUnits="userSpaceOnUse" x1="234.1233" y1="394.6043" x2="165.6431" y2="368.3653" gradientTransform="matrix(1 0 0 1 -5.910315e-03 0.0179)">
		<stop  offset="0" style="stop-color:#0D1829"/>
		<stop  offset="3.615070e-03" style="stop-color:#0F1C2F"/>
		<stop  offset="0.0111" style="stop-color:#11213A"/>
		<stop  offset="0.02" style="stop-color:#122441"/>
		<stop  offset="0.031" style="stop-color:#122647"/>
		<stop  offset="0.0465" style="stop-color:#12274A"/>
		<stop  offset="0.0893" style="stop-color:#12274B"/>
		<stop  offset="0.246" style="stop-color:#164564"/>
		<stop  offset="0.4387" style="stop-color:#1A6684"/>
		<stop  offset="0.6173" style="stop-color:#1685A2"/>
		<stop  offset="0.7761" style="stop-color:#0C9EBA"/>
		<stop  offset="0.9091" style="stop-color:#00AECB"/>
		<stop  offset="1" style="stop-color:#00B6D2"/>
	</linearGradient>
	<polygon style="fill:url(#SVGID_00000125582281107451573260000002197638525507340729_);" points="229.6,399.12 208.19,399.14 
		186.74,399.15 176.02,380.59 165.28,362.04 186.72,362.01 208.16,361.99 214.97,373.76 218.9,380.56 218.9,380.57 	"/>
	<path class="st4" d="M240.32,269.18"/>
	
		<linearGradient id="SVGID_00000008828852345080686990000008881518620464832386_" gradientUnits="userSpaceOnUse" x1="226.2139" y1="246.5355" x2="212.0958" y2="361.5974">
		<stop  offset="0" style="stop-color:#0D1829"/>
		<stop  offset="2.471102e-03" style="stop-color:#0F1C2F"/>
		<stop  offset="7.615894e-03" style="stop-color:#11213A"/>
		<stop  offset="0.0137" style="stop-color:#122441"/>
		<stop  offset="0.0212" style="stop-color:#122647"/>
		<stop  offset="0.0318" style="stop-color:#12274A"/>
		<stop  offset="0.0611" style="stop-color:#12274B"/>
		<stop  offset="0.184" style="stop-color:#133455"/>
		<stop  offset="0.4376" style="stop-color:#185270"/>
		<stop  offset="0.7967" style="stop-color:#148BA7"/>
		<stop  offset="1" style="stop-color:#00B6D2"/>
		<stop  offset="1" style="stop-color:#2484C6;stop-opacity:0"/>
	</linearGradient>
	<polygon style="fill:url(#SVGID_00000008828852345080686990000008881518620464832386_);" points="272.48,250.61 261.77,269.17 
		251.04,287.74 240.33,306.32 229.6,324.89 218.89,343.45 208.16,362.02 165.28,362.02 176,343.45 186.72,324.89 197.45,306.32 
		208.16,287.74 218.89,269.17 229.6,250.61 	"/>
</g>
<g>
	
		<linearGradient id="SVGID_00000161614006064016815350000013892015882764229307_" gradientUnits="userSpaceOnUse" x1="379.6996" y1="362.023" x2="422.5813" y2="362.023">
		<stop  offset="0" style="stop-color:#0D1829"/>
		<stop  offset="5.441372e-03" style="stop-color:#0F1C2F"/>
		<stop  offset="0.0168" style="stop-color:#11213A"/>
		<stop  offset="0.0302" style="stop-color:#122441"/>
		<stop  offset="0.0467" style="stop-color:#122647"/>
		<stop  offset="0.0699" style="stop-color:#12274A"/>
		<stop  offset="0.1344" style="stop-color:#12274B"/>
		<stop  offset="0.6729" style="stop-color:#197592"/>
		<stop  offset="1" style="stop-color:#00B6D2"/>
		<stop  offset="1" style="stop-color:#2484C6;stop-opacity:0"/>
	</linearGradient>
	<polygon style="fill:url(#SVGID_00000161614006064016815350000013892015882764229307_);" points="422.58,362.02 411.85,380.6 
		401.14,399.16 390.41,380.6 379.7,362.02 390.41,343.45 401.14,324.89 411.85,343.45 	"/>
	
		<linearGradient id="SVGID_00000014592716778012952420000006756736016209882774_" gradientUnits="userSpaceOnUse" x1="401.8169" y1="391.7335" x2="464.4069" y2="369.6152">
		<stop  offset="0" style="stop-color:#0D1829"/>
		<stop  offset="0.1892" style="stop-color:#12274B"/>
		<stop  offset="0.3068" style="stop-color:#164665"/>
		<stop  offset="0.4293" style="stop-color:#1A627F"/>
		<stop  offset="0.5515" style="stop-color:#187D99"/>
		<stop  offset="0.6711" style="stop-color:#1194B0"/>
		<stop  offset="0.7873" style="stop-color:#07A5C1"/>
		<stop  offset="0.8988" style="stop-color:#00B1CD"/>
		<stop  offset="1" style="stop-color:#00B6D2"/>
		<stop  offset="1" style="stop-color:#2484C6;stop-opacity:0"/>
	</linearGradient>
	<polygon style="fill:url(#SVGID_00000014592716778012952420000006756736016209882774_);" points="465.48,362.03 454.75,380.6 
		444.04,399.17 422.6,399.16 401.15,399.16 411.87,380.6 422.6,362.03 	"/>
	
		<linearGradient id="SVGID_00000173135430365861570410000015868022330974912654_" gradientUnits="userSpaceOnUse" x1="305.2073" y1="460.6241" x2="436.2697" y2="302.7374">
		<stop  offset="0" style="stop-color:#0D1829"/>
		<stop  offset="4.581568e-03" style="stop-color:#0F1C2F"/>
		<stop  offset="0.0141" style="stop-color:#11213A"/>
		<stop  offset="0.0254" style="stop-color:#122441"/>
		<stop  offset="0.0393" style="stop-color:#122647"/>
		<stop  offset="0.0589" style="stop-color:#12274A"/>
		<stop  offset="0.1132" style="stop-color:#12274B"/>
		<stop  offset="0.21" style="stop-color:#133052"/>
		<stop  offset="0.3953" style="stop-color:#164665"/>
		<stop  offset="0.6499" style="stop-color:#1A6B88"/>
		<stop  offset="0.9612" style="stop-color:#02AAC7"/>
		<stop  offset="1" style="stop-color:#00B6D2"/>
		<stop  offset="1" style="stop-color:#2484C6;stop-opacity:0"/>
	</linearGradient>
	<polygon style="fill:url(#SVGID_00000173135430365861570410000015868022330974912654_);" points="465.46,362.02 422.58,362.02 
		411.85,343.45 401.14,324.89 390.41,343.45 379.7,362.02 368.97,380.6 358.26,399.16 347.53,417.73 336.82,436.29 293.92,436.29 
		304.65,417.73 315.36,399.16 326.09,380.6 336.82,362.02 347.53,343.45 358.26,324.89 368.97,306.32 379.7,287.74 390.41,269.17 
		401.14,250.61 411.85,269.17 422.58,287.74 433.29,306.32 444.02,324.89 454.74,343.45 	"/>
</g>
<text transform="matrix(1 0 0 1 132.4207 477.4398)" class="st10 st11 st12 st13">Master</text>
</svg>
